# xmcd
# Track frame offsets:
# 150
# 21345
# 45960
# 60795
# 95237
# 111552
# 133362
# 160555
# 183767
# 203922
# 226402
# 247867
#
# Disc length: 3576 seconds
# Revision: 1
# Processed by: cddbd v1.5.1PL0 Copyright (c) Steve Scherf et al.
# Submitted via: VisiTrax 2.9.10.228 - For more info visit www.synapsa.com
#
DISCID=990df60c
DTITLE=Formula 3 - I Grandi Successi Originali Cd 2
DYEAR=1900
DGENRE=pop
TTITLE0=Storia di un uomo una donna
TTITLE1=La grande casa
TTITLE2=Avevo una bambola
TTITLE3=Dies irae
TTITLE4=Eppur mi son scordato di te
TTITLE5=Nanananò
TTITLE6=Perchè... perchè ti amo
TTITLE7=Se non è amore cos'è
TTITLE8=Walk away renee
TTITLE9=Cara Giovanna
TTITLE10=Bambina sbagliata
TTITLE11=La ciliegia non è di plastica
EXTD=
EXTT0=
EXTT1=
EXTT2=
EXTT3=
EXTT4=
EXTT5=
EXTT6=
EXTT7=
EXTT8=
EXTT9=
EXTT10=
EXTT11=
PLAYORDER=
